/* XPM */
static char *_6cc79c7ca494860f39126e57c539da7gtL3kmkdiBd4pKgJ[] = {
/* columns rows colors chars-per-pixel */
"50 50 225 2 ",
"   c None",
".  c #26210F",
"X  c #2A2412",
"o  c #25251E",
"O  c #29251B",
"+  c #29271A",
"@  c #29271B",
"#  c #2A281C",
"$  c #2E291D",
"%  c #302810",
"&  c #3B2F13",
"*  c #39331C",
"=  c #2F2E23",
"-  c #433713",
";  c #4E3D14",
":  c #4D3F1C",
">  c #423A26",
",  c #433B2B",
"<  c #564315",
"1  c #5E4B17",
"2  c #5F4D1D",
"3  c #614E1C",
"4  c #675017",
"5  c #63501D",
"6  c #6D5519",
"7  c #6E5518",
"8  c #69531E",
"9  c #6C551C",
"0  c #755B18",
"q  c #765A1A",
"w  c #725A1E",
"e  c #7B5E19",
"r  c #7B5E1B",
"t  c #4B4128",
"y  c #4F4630",
"u  c #4F4731",
"i  c #554C33",
"p  c #5C4F31",
"a  c #584D34",
"s  c #755D24",
"d  c #615233",
"f  c #675A3A",
"g  c #6A5B38",
"h  c #6A5C3A",
"j  c #6B5D3A",
"k  c #6E5F3C",
"l  c #7C6222",
"z  c #7E6A3D",
"x  c #7C6A42",
"c  c #806219",
"v  c #81631A",
"b  c #80631B",
"n  c #83651B",
"m  c #82661B",
"M  c #84651B",
"N  c #81641E",
"B  c #86691E",
"V  c #87691E",
"C  c #886A1E",
"Z  c #896A1F",
"A  c #8D6C1E",
"S  c #8D6D1F",
"D  c #91701E",
"F  c #94721F",
"G  c #97741F",
"H  c #99751F",
"J  c #A27C1F",
"K  c #A67F1F",
"L  c #866A25",
"P  c #866B2B",
"I  c #8B702F",
"U  c #907021",
"Y  c #977522",
"T  c #967525",
"R  c #967527",
"E  c #997621",
"W  c #987622",
"Q  c #9A7722",
"!  c #987727",
"~  c #9C7820",
"^  c #9C7821",
"/  c #9F7A21",
"(  c #967628",
")  c #967629",
"_  c #96772A",
"`  c #96772D",
"'  c #96772E",
"]  c #8B7030",
"[  c #8A7135",
"{  c #8E753B",
"}  c #89723E",
"|  c #927632",
" . c #987931",
".. c #987A31",
"X. c #997B36",
"o. c #947A3F",
"O. c #977C3D",
"+. c #977C3F",
"@. c #A17C23",
"#. c #A47E20",
"$. c #877447",
"%. c #8C7849",
"&. c #8D7849",
"*. c #8E794A",
"=. c #927941",
"-. c #997E41",
";. c #987E42",
":. c #A7801F",
">. c #A9811F",
",. c #AB831F",
"<. c #AC831F",
"1. c #AD841F",
"2. c #AF851F",
"3. c #B0861F",
"4. c #B1861F",
"5. c #B2871F",
"6. c #AC8320",
"7. c #AD8420",
"8. c #B68A20",
"9. c #B88C20",
"0. c #BA8D20",
"q. c #BF9120",
"w. c #C09120",
"e. c #C29220",
"r. c #C29320",
"t. c #C39320",
"y. c #C49420",
"u. c #C99720",
"i. c #CB9920",
"p. c #D5A020",
"a. c #D5A021",
"s. c #D6A121",
"d. c #DBA421",
"f. c #DDA621",
"g. c #DEA621",
"h. c #DFA721",
"j. c #E0A821",
"k. c #E1A921",
"l. c #E2A921",
"z. c #E2AA21",
"x. c #E4AB21",
"c. c #E5AB21",
"v. c #E7AC21",
"b. c #E8AD21",
"n. c #E8AE21",
"m. c #EAAF21",
"M. c #EBAF21",
"N. c #EBB021",
"B. c #EDB121",
"V. c #EEB221",
"C. c #EFB321",
"Z. c #F0B321",
"A. c #F1B421",
"S. c #998045",
"D. c #998046",
"F. c #9B8148",
"G. c #9A8149",
"H. c #9A814A",
"J. c #9F854A",
"K. c #9B834C",
"L. c #A0864C",
"P. c #A68B4F",
"I. c #A38A51",
"U. c #A48A52",
"Y. c #A48B52",
"T. c #A58B52",
"R. c #A58C53",
"E. c #A78D54",
"W. c #A98E54",
"Q. c #A98F55",
"!. c #AA8F55",
"~. c #AB9055",
"^. c #AF9356",
"/. c #AE9357",
"(. c #AF9457",
"). c #B29658",
"_. c #B39759",
"`. c #B5995A",
"'. c #B6995A",
"]. c #B89B5B",
"[. c #BA9C5B",
"{. c #BC9E5D",
"}. c #BFA15E",
"|. c #C2A35F",
" X c #C3A45F",
".X c #C4A460",
"XX c #C7A761",
"oX c #C8A862",
"OX c #C9A862",
"+X c #CAA962",
"@X c #CBAA63",
"#X c #CCAB63",
"$X c #D2B065",
"%X c #D3B166",
"&X c #D5B267",
"*X c #D7B367",
"=X c #D7B368",
"-X c #D7B468",
";X c #D8B468",
":X c #D8B568",
">X c #D9B568",
",X c #D9B569",
"<X c #D9B669",
"1X c #DAB669",
"2X c #DBB769",
"3X c #DDB86A",
"4X c #DDB96A",
"5X c #DEB96A",
"6X c #DEB96B",
"7X c #DFBA6B",
"8X c #E0BB6B",
"9X c #E4BE6D",
"0X c #E6C06E",
"qX c #E9C26F",
"wX c #EBC370",
"eX c #EDC671",
"rX c #EEC671",
"tX c #EFC772",
"yX c #F1C872",
"uX c #F1C972",
"iX c #F1C973",
"pX c #F3CA73",
"aX c #F4CB73",
"sX c #F4CB74",
"dX c #F5CC74",
/* pixels */
"                                                                                                    ",
"                                                                                                    ",
"                                                                                                    ",
"                                                                                                    ",
"                                                                                                    ",
"                                                                                                    ",
"                                                                                                    ",
"                                                                                                    ",
"                                                                                                    ",
"                                                                                                    ",
"                                                                                                    ",
"                                                                                                    ",
"                                                                                                    ",
"                                                                                                    ",
"                                                                                                    ",
"                                                                                                    ",
"                                                                                                    ",
"                                      . % & - ; < 1 4 7 0 e v v M n n v e 0 7 X                     ",
"              k t 8 :.t.i.a.f.v.V.A.A.A.A.A.A.A.A.A.A.A.A.A.A.A.A.A.A.A.A.A.A.A 9                   ",
"            d dXdX5XQ.O.( 3.c.A.A.A.A.A.A.A.A.A.A.A.A.A.A.A.A.A.A.A.A.A.A.A.a.J b.*                 ",
"            g dXdXdXdXdXdX2XU.O.( 3.k.A.A.A.A.A.A.A.A.A.A.A.A.A.A.A.A.A.A.N.C V.A.3.                ",
"            > dXdXdXdXdXdXdXdXdXdX2XQ.;. .^ q.b.A.A.A.A.A.A.A.A.A.A.A.A.V.C c.A.A.A.:               ",
"              XXdXdXdXdX5X#XdXdXdXdXdXdXdXyX#XI.;. .Q 9.k.A.A.A.A.A.A.k.B f.A.A.A.A.2.              ",
"              $ eXdXdXdX} s dXdXdXdXdXdXdXdXdXdXdXdXyX%X~.D.X.! ,.t.G H N.A.A.A.A.A.V.@             ",
"                5XdXdXdXqX&XdXdXdX/.G.XXdXdXdXdXdXdXdXdXdXdXdXdX9Xz b.A.A.A.A.A.A.A.A.5             ",
"              Q.dXdXdXdXdXdXdXdX(.i.A.^ &XdXdXdXdXdXdXdXdXdXdXdXdX&X7.A.A.A.A.A.A.A.A.D             ",
"            #XdXdXdXdXdXdXdXdXdXU.f.A.a.).dXdXdXdXdXdXdXyXL.D.2XdXdX| A.A.A.A.A.A.A.A.3.            ",
"            2XdXdXdXdXyXOX2XdXdXeX{ Q [ eXdXdXdXdXdXdXdXU.f.Z.] dXdXK.b.A.A.A.A.A.A.A.y.            ",
"            %XdXdXdX0XP t.3.=.dXdXdXdXdXdXdXdXdXdXdXdXdX{.9.Z.I dXdXOXt.A.A.A.A.A.A.A.u.            ",
"            #XdXdXdXE.k.A.A.2.=XdXdXdXdXdXsXdXdXdXdXdXdXdX[.G.2XdXdXeX^ A.A.A.A.A.A.A.t.            ",
"             XdXdXdXOX8.A.A.6.2XdXdXdXdX2Xl /.dXdXdXdXdXdXdXdXdXdXdXdXT A.A.A.A.A.A.A.2.            ",
"            '.dXdXdXdXP.T Q J.dXdXdXdXdXyXG.-XdXdXdXdXdXdXdXdXdXdXdXdX' A.A.A.A.A.A.A.A             ",
"            j  XyXdXdXdXdXsXdXdXdXdXdXdXdXdXdXdXdXdX5XqXdXdXdXdXdXdXdX' A.A.A.A.A.A.A.3             ",
"                  f Q.0XdXdXdXdXdXdXdXdXdXdXdXdXdX].K L 0XdXdXdXdXdXdX( A.A.A.A.A.A.N.#             ",
"                        u %.OXaXdXdXdXdXdXdXdXdXdX|.#.U 8XdXdXdXdXdXsXY A.A.A.A.A.A.F               ",
"                              = j R.8XdXdXdXdXdXdXdX2X2XdXdXdXdXdXdX8X,.A.A.A.A.A.<.                ",
"                                      , x '.wXdXdXdXdXdXdXdXdXdXdXdX).a.A.A.A.k.w                   ",
"                                              u $.}.eXdXdXdXdXdXdXdXo.A.A.c.B @                     ",
"                                                      i %.XXyXdXdX5X@.d.N @                         ",
"                                                            o a %.p 2                               ",
"                                                                                                    ",
"                                                                                                    ",
"                                                                                                    ",
"                                                                                                    ",
"                                                                                                    ",
"                                                                                                    ",
"                                                                                                    ",
"                                                                                                    ",
"                                                                                                    ",
"                                                                                                    "
};
