/* XPM */
static char *_cbcc9c2cfdd4734d44a19bd3e3f3439viSAu6J7ZaoI3s6e[] = {
/* columns rows colors chars-per-pixel */
"50 50 179 2 ",
"   c None",
".  c black",
"X  c #090909",
"o  c #191919",
"O  c #151515",
"+  c #220202",
"@  c #2E0202",
"#  c #3E1F1F",
"$  c #3F1F20",
"%  c #262626",
"&  c #2B2B2B",
"*  c #343434",
"=  c #4F0102",
"-  c #520001",
";  c #5C0202",
":  c #5F0608",
">  c #5B0A0A",
",  c #5C1A1B",
"<  c #630405",
"1  c #6D0909",
"2  c #6B0305",
"3  c #740204",
"4  c #7C0102",
"5  c #7F0708",
"6  c #760D0D",
"7  c #7A0B0C",
"8  c #631112",
"9  c #621B1B",
"0  c #741010",
"q  c #7E1B1D",
"w  c #423E3E",
"e  c #6A3031",
"r  c #434343",
"t  c gray29",
"y  c #5B4E4E",
"u  c gray34",
"i  c #5C5C5C",
"p  c #766B6A",
"a  c #737373",
"s  c gray48",
"d  c #850002",
"f  c #8C0103",
"g  c #800408",
"h  c #8D0709",
"j  c #840D0E",
"k  c #8B0C0D",
"l  c #940104",
"z  c #9B0103",
"x  c #960709",
"c  c #9C0609",
"v  c #930B0D",
"b  c #9B0A0C",
"n  c #8B0E11",
"m  c #9A0F12",
"M  c #8A1012",
"N  c #86171A",
"B  c #83181A",
"V  c #951315",
"C  c #981315",
"Z  c #9D1B1D",
"A  c #A40104",
"S  c #AA0104",
"D  c #AC0004",
"F  c #AF0004",
"G  c #AE0204",
"H  c #AA0003",
"J  c #A7070A",
"K  c #AC0609",
"L  c #A20A0B",
"P  c #AC090B",
"I  c #B00004",
"U  c #B20004",
"Y  c #B20205",
"T  c #B40004",
"R  c #B70004",
"E  c #B50205",
"W  c #B50105",
"Q  c #B80004",
"!  c #B90104",
"~  c #BB0004",
"^  c #BA0104",
"/  c #BA0305",
"(  c #BD0004",
")  c #BC0104",
"_  c #BF0004",
"`  c #BF0205",
"'  c #BB0105",
"]  c #B60508",
"[  c #B8060A",
"{  c #B60A0D",
"}  c #A30D10",
"|  c #B30C10",
" . c #A31113",
".. c #AA1518",
"X. c #A3181A",
"o. c #B71519",
"O. c #8E2A2B",
"+. c #9C2628",
"@. c #9E2A2C",
"#. c #843335",
"$. c #9D3B3F",
"%. c #C10004",
"&. c #C00004",
"*. c #C20104",
"=. c #C30104",
"-. c #C30105",
";. c #C30004",
":. c #C20106",
">. c #C40104",
",. c #C50005",
"<. c #C40105",
"1. c #C70105",
"2. c #C70205",
"3. c #C50205",
"4. c #C40105",
"5. c #C80105",
"6. c #C90105",
"7. c #CA0105",
"8. c #CB0105",
"9. c #CB0005",
"0. c #C90205",
"q. c #C80205",
"w. c #CA0306",
"e. c #CC0105",
"r. c #CD0105",
"t. c #CD0005",
"y. c #CF0105",
"u. c #CE0105",
"i. c #CD0205",
"p. c #CC0205",
"a. c #CE0205",
"s. c #CF0205",
"d. c #CD0005",
"f. c #D00105",
"g. c #D10105",
"h. c #D20105",
"j. c #D30105",
"k. c #D30205",
"l. c #D20205",
"z. c #D10205",
"x. c #D40205",
"c. c #D50205",
"v. c #D20005",
"b. c #8C4041",
"n. c #8B5C5C",
"m. c #925656",
"M. c #965758",
"N. c #A4494B",
"B. c #A54445",
"V. c #946364",
"C. c #97696A",
"Z. c #A26768",
"A. c #A86A6B",
"S. c #E9494E",
"D. c #CC6064",
"F. c #858585",
"G. c gray55",
"H. c #9E8A8A",
"J. c #969696",
"K. c #A78080",
"L. c #A88283",
"P. c #A99696",
"I. c #B19393",
"U. c #B19F9F",
"Y. c #A7A7A7",
"T. c #B7A1A1",
"R. c #B3B3B3",
"E. c #B9B3B3",
"W. c #BDBCBC",
"Q. c #CC8487",
"!. c #C5C5C5",
"~. c #CDCCCC",
"^. c #CCC4C4",
"/. c gray86",
"(. c #D2D2D2",
"). c #E1E1E1",
"_. c #ECECEC",
"`. c #F1F1F1",
"'. c #FEFEFE",
/* pixels */
"                                                                                                    ",
"                                                ^ )                                                 ",
"                                              a.k.8.k.                                              ",
"                                          3 x.x.a.2.x.x.f                                           ",
"                                        z x.k.k.a.2.k.k.x.S                                         ",
"                                      T x.x.k.k.8.&.a.k.k.x.&.          ) &.&.&.&.&.                ",
"                                    2.x.k.k.k.a.8.) a.a.k.k.x.a.        2.8.8.8.a.a.                ",
"                                  k.k.k.k.a.a.a.z f 8.a.a.k.k.k.x.3     &.2.8.8.8.8.:               ",
"                              d x.k.k.k.a.a.2.f 4 4 d &.a.a.k.k.k.x.z   ) &.2.8.8.8.:               ",
"                            A x.k.k.a.a.a.) d d f f d d T a.a.a.k.k.x.2.^ ) &.2.2.8.:               ",
"                          v b L v k j v x d f l A A z f d j k v v b v j j T ) &.&.2.<               ",
"                        a.x.k.k.a.a.:.l 4 l z H F F S z l d z 8.a.a.k.k.k.k.&.) &.&.<               ",
"                    3 x.k.k.k.a.a.8.l d l A F T T T T U A l f f &.a.a.k.k.k.x.2.^ &.;               ",
"                  l x.k.k.k.a.a.&.f f z H U ^ ^ ^ ^ ^ ^ T H z f d ^ a.a.a.k.k.k.8.^ <               ",
"                T k.k.k.a.a.a.U d l z F T ^ ) ) ) &.) ) ^ T F A l d F 8.a.a.k.k.k.a.<               ",
"              2.k.k.k.a.a.8.A d l A U ^ ^ T ^ ^ ^ ^ ^ ^ T ^ ^ U A l d z 8.a.a.k.k.k.a.              ",
"            k.k.k.a.a.a.2.5 1 5 x A Y T F U T ^ ^ ) ^ T U x k k j 7 6 1 7 &.8.a.a.k.k.k.3           ",
"        d x.k.k.a.a.8.) f d h h v v k v c x # $ $ $ $ $ k U / ^ T U S z f f ^ 8.a.a.k.k.k.l         ",
"      z i.w.2.8.a.8.T d l A F ^ ) &.&.&.&.b & & & & & & n &.2.&.&.) ^ F A l d F 8.a.a.a.k.k.U       ",
"    J P J L L v v 7 d l A U ^ ) &.&.2.2.&.b & & & & & & n &.2.2.&.&.) ^ U A l d j j k v b v b k     ",
"  2 k.a.a.a.8.2.l f z H T ) &.&.&.2.8.8.2.b & & & & & & n &.8.8.2.2.&.&.) T H z f l &.8.a.a.a.a.f   ",
"    z 8.8.8.) f f z F T ) &.&.2.2.8.8.8.2.b & & & & & & n &.8.8.8.2.2.&.&.) ^ F z l f ^ 8.8.a.F     ",
"      T 2.U d l A F ^ ) &.2.2.8.8.8.8.8.2.b % % % % % % k &.8.8.8.8.8.2.2.&.&.^ U A l d S 8.)       ",
"        l - l A U ^ ) &.2.2.8.8.8.8.8.8.8.K , , , , , , L 2.8.8.8.8.8.8.2.2.&.&.) T A l ; f         ",
"        + = A T ) &.&.2.2.8.8.8.8.8.8.a.8.k.x.x.x.x.k.k.k.2.8.8.8.8.8.8.8.8.2.2.&.) ^ H ; @         ",
"            T &.&.2.2.8.8.8.8.8.8.a.a.a.a.a.a.a.a.a.a.a.a.a.a.8.8.8.2.&.] ] ] ] ) &.&.^             ",
"            k k k v x L L L b k k k k j k k v k k k k j k 7 k j j k k k v L b b 7 8 0 6             ",
"            2.8.2.:.] K J K ] 2.8.a.a.a.a.a.a.a.a.a.a.a.a.a.8.8.a.a.a.a.8.8.8.8.8.8.8.2.            ",
"            8.8.8.8.8.8.8.a.a.a.a.a.a.a.a.a.a.a.a.a.a.a.a.a.a.a.a.a.a.a.a.a.8.8.8.8.8.8.            ",
"            8.8.8.8.a.a.a.a.a.a.a.a.a.a.a.a.a.a.a.a.a.a.a.a.a.a.a.a.a.a.a.a.a.U  .N.+.&.            ",
"            8.8.8.a.a.a.a.a.a.a.a.a.a.) ^ ^ ^ ^ T T T T T T ^ a.a.a.a.) @.B.Z #.~.'.'.K.            ",
"            8.a.a.a.a.a.a.a.a.a.a.a.a.&.] v v v v v v v v K 2.a.a.a.^ T.'.'.'._.'.'.'.'.r           ",
"            8.a.a.a.a.a.a.a.a.a.a.a.a.8.V * * * * * * * * N k.a.a.o.m.'.'.'.'.!.'.'.'.'.Y.          ",
"            a.a.a.a.a.a.a.a.a.a.a.a.a.8.C * * * * * * * * N k.a.a.V.J.'.'.'.'.'.'.'.'.'./.          ",
"            a.a.a.a.a.a.a.a.a.a.a.a.a.8.C * * * * * * * * N k.a.a.F V.'.'.'.'.'.'.'.~.a a           ",
"            b k v k v k j j j k k k k K C * * * * * * * * N &.L b b j P.'.'.'.'.(.'.a o X t         ",
"            a.a.a.a.a.a.a.a.a.a.a.a.a.8.C * * * * * * * * N k.a.a.a.a.^ b.E.W.R.'.~.* . O t         ",
"            a.a.a.a.a.a.a.a.a.a.a.a.a.8.V * * * * * * * i N a.a.a.a.a.a.a.U C.'.'.Y.& % *           ",
"            a.a.a.a.a.a.a.a.a.a.a.a.a.8.V * * * * * * * G.B a.a.a.a.a.a.a.&.g $.D.A e w w           ",
"            a.a.a.a.a.a.a.a.a.a.a.a.a.8.V * * * * * * * F.B a.a.a.a.a.a.a.2.#.Q.S.8.a.)             ",
"            a.a.a.a.a.a.a.a.a.a.a.a.a.2.V * * * * * * * F.B a.a.a.a.a.a.a.X._.~.W.&.a.a.            ",
"            a.a.a.a.a.a.a.a.a.a.a.a.a.2.V * * * * * * * r B 8.a.a.a.a.a.a.I.'./.~. .a.a.            ",
"            a.a.a.a.a.a.a.a.a.a.a.a.a.2.V * * * * * * * * B 8.a.a.a.a.a.) ~.'.!.`.A.a.a.            ",
"            v v b v v L L L L L L L b K V * * * * * * * * B &.] ] / :.2.2.T.'.R._.Z.a.a.            ",
"            2.8.a.a.a.a.a.a.a.a.a.a.a.&.V * * * * * * * * B ) K K K J b v q ^.R.F.y p 9             ",
"            a.a.a.a.a.a.a.a.a.a.a.a.a.&.V * * * * * * * * B 8.a.a.a.a.a.8.T L.W._.l M c             ",
"            a.a.a.a.a.a.a.a.a.a.a.a.a.&.V * * * * * * * * B 8.a.a.a.a...H.J.R.).'.M.&.a.<           ",
"            [ { { { { { { { { { { { { P } B B B B B B B B m P | | | | n.G.R._.'.'.'.O.| >           ",
"                                                                        o u s a i *                 ",
"                                                                                                    "
};
