/* XPM */
static char *a332b9fd6a9546828b2fab255f8f7701P5cnxCFZ7R6FeOcA[] = {
/* columns rows colors chars-per-pixel */
"50 50 26 1 ",
"  c gray94",
". c #F1F1F1",
"X c gray95",
"o c #F3F3F3",
"O c #F2F2F4",
"+ c #F3F3F5",
"@ c #F4F4F4",
"# c gray96",
"$ c #F4F4F6",
"% c #F5F5F7",
"& c #F6F6F6",
"* c gray97",
"= c #F6F6F8",
"- c #F7F7F9",
"; c #F8F8F8",
": c #F9F9F9",
"> c #F8F8FA",
", c #F9F9FB",
"< c gray98",
"1 c #FBFBFB",
"2 c #FAFAFC",
"3 c #FBFBFD",
"4 c gray99",
"5 c #FDFDFD",
"6 c #FEFEFE",
"7 c white",
/* pixels */
"55555555555555555555555551555555155555515515551551",
"5555555555555555555555555155515515511551551151*51*",
"555555555555555555555555551551151151*55*151*11**11",
"5555555555555555155555515551551551151151*51**11o11",
"555555555555555515555551555155155*151*15*111*11o11",
"555555555555555555555555155111115*155**5**11*11**1",
"5555555555555555555555555555115151111**11**1**11*1",
"55555555555555555555555551551551155111*15o*5*o11**",
"55555555555555555555555551551155155*551*55**5* 5*o",
"555555555555555555555555515511551511111*15**5*o11*",
"5555555555555555555555555511511511111111*11*11*o1*",
"5555555555555555155555515511551551551155*151*11o11",
"555555555555555515555551551155155*151*15**51*15o*1",
"5555555555555555555555551511151151151111**11o*1*o1",
"55555555555555555555555511551151111111*11**1***1o*",
"55555555555555555555555551551151151*51*151*11o*5*o",
"55555555555555555555515551551155155*15**15*o51o5=o",
"555555555555555555555555511511551511111**1**11o11*",
"5555555555555555555555515511511511111111*11**1*o1=",
"5555555555555555155555515511551151551155*151*11o=1",
"555555555555555515555551551155115*1511151151o15o*3",
"55555555555555555555555515515511111111111*11o*1*+1",
"55555555555555555555555511551551111111*15*11***1++",
"55555555555555555555555511551151151155**5**51**5=+",
"555555555555555555555115515511551155*15*55**5* 1=+",
"555555555555555555555555515511551111*151*51*11o*1=",
"5555555555555555555555515511551551151111o55**11 13",
"5555555555555555155555515511551551151115o151+15 =3",
"5555555555555555155555511511551151111115**11*13**3",
"55555555555555555555555515115511151111111o*1**11*=",
"55555555555555555555555515551551151151*15**11o*1*+",
"55555555555555555515515511551551151*55**51151**5=+",
"555555555555555555555555515511511155*15*51**5*o1*o",
"555555555555555555555555515511151155*151*1***1**1*",
"5555555555555555555555515515551551151151o15*o11o11",
"5555555555555555555115515511551551111115o15*o15o*1",
"5555555555555555555555515511551111115115**11o*1o*1",
"55555555555555555555555515115511111151*15**1***1o*",
"55555555555555555555511555551151151*51*151*15**5oo",
"55555555555555555115511551551151151*55**51*15*o51*",
"555555555555555555555555511551151155*15*11**1*o1**",
"555555555555555555555555555551151*15*111*11**1*o11",
"555555555555555555555555555555151*151115*15**11o11",
"5555555555555555555555555555551151155115*151*15o*1",
"55555555555555555555555515551511511151*51*11**1*o*",
"55555555555555555555555515511551511151*15**11**1o*",
"55555555555555555555555555555555151151*151111**5**",
"55555555555555555555555555555555555155155511511555",
"55555555555555555555555555555555555555555555555155",
"55555555555555555555555555555555555555555555555155"
};
