/* XPM */
static char *_9fbb773eac3499cf002d29f243374a7QPPUc0dOskP3IeoY[] = {
/* columns rows colors chars-per-pixel */
"50 50 250 2 ",
"   c #1B0406",
".  c #1D0A10",
"X  c #2C0C03",
"o  c #240C0C",
"O  c #280804",
"+  c #350D06",
"@  c #2D1207",
"#  c #331300",
"$  c #381808",
"%  c #240F13",
"&  c #2A1313",
"*  c #371516",
"=  c #392210",
"-  c #371E21",
";  c #3B2825",
":  c #451800",
">  c #451B16",
",  c #410E00",
"<  c #631F00",
"1  c #482406",
"2  c #5B2200",
"3  c #563700",
"4  c #4B2C1B",
"5  c #46241A",
"6  c #552A1A",
"7  c #50341A",
"8  c #643707",
"9  c #663619",
"0  c #70350D",
"q  c #461B21",
"w  c #422323",
"e  c #4C2A23",
"r  c #4B2627",
"t  c #552D27",
"y  c #4D3328",
"u  c #58372A",
"i  c #553D3A",
"p  c #5A3933",
"a  c #4A3235",
"s  c #652D25",
"d  c #65392A",
"f  c #653A34",
"g  c #773C32",
"h  c #753A2A",
"j  c #5E4000",
"k  c #6C480E",
"l  c #5C422A",
"z  c #594338",
"x  c #634B29",
"c  c #64443B",
"v  c #6C453C",
"b  c #68483A",
"n  c #784838",
"m  c #7A5232",
"M  c #6B4B2F",
"N  c #563D41",
"B  c #6C4C44",
"V  c #664B44",
"C  c #734C44",
"Z  c #784B48",
"A  c #6C5548",
"S  c #74544B",
"D  c #79534D",
"F  c #765647",
"G  c #6D5551",
"H  c #795955",
"J  c #7A634F",
"K  c #796456",
"L  c #7A6764",
"P  c #7E7168",
"I  c #6B5E65",
"U  c #874907",
"Y  c #9C5A0A",
"T  c #975A1B",
"R  c #8E500D",
"E  c #9C7815",
"W  c #8F6513",
"Q  c #A56809",
"!  c #B96E08",
"~  c #AA730C",
"^  c #B87708",
"/  c #A9661B",
"(  c #B36A17",
")  c #A77416",
"_  c #B57A17",
"`  c #875829",
"'  c #88543B",
"]  c #894C32",
"[  c #9A6B29",
"{  c #A46526",
"}  c #AC7B26",
"|  c #C47B08",
" . c #C67A13",
".. c #D17C11",
"X. c #CD7921",
"o. c #864C44",
"O. c #855548",
"+. c #9C5E4C",
"@. c #845B55",
"#. c #885A55",
"$. c #935A55",
"%. c #89634E",
"&. c #83645B",
"*. c #886557",
"=. c #96685A",
"-. c #89715A",
";. c #9B765D",
":. c #B66F4B",
">. c #AD7847",
",. c #A77356",
"<. c #B47553",
"1. c #836C64",
"2. c #896D66",
"3. c #956C66",
"4. c #887268",
"5. c #98756B",
"6. c #8C7973",
"7. c #977C75",
"8. c #A67669",
"9. c #B57B6C",
"0. c #AB7E73",
"q. c #A37C77",
"w. c #B57772",
"e. c #C27758",
"r. c #BC8216",
"t. c #9E8328",
"y. c #B39434",
"u. c #CA840B",
"i. c #D48D0C",
"p. c #D28907",
"a. c #CC9603",
"s. c #D6950A",
"d. c #CD8919",
"f. c #D48A15",
"g. c #CC9516",
"h. c #D8AE1C",
"j. c #E3A51C",
"k. c #C79833",
"l. c #CA8E27",
"z. c #E09F27",
"x. c #D8A925",
"c. c #DDB325",
"v. c #DDB537",
"b. c #CBA732",
"n. c #E5AB27",
"m. c #E5B724",
"M. c #E6BA37",
"N. c #DECC3C",
"B. c #F6D633",
"V. c #F0CE31",
"C. c #FFE33D",
"Z. c #F0CA1F",
"A. c #AC8A4B",
"S. c #8E8079",
"D. c #9B8578",
"F. c #9F8869",
"G. c #AC847A",
"H. c #A68778",
"J. c #B68276",
"K. c #B88679",
"L. c #AE9270",
"P. c #B6AA78",
"I. c #C8984F",
"U. c #CEA550",
"Y. c #E8B853",
"T. c #C48675",
"R. c #C99170",
"E. c #E19F7F",
"W. c #CCA364",
"Q. c #E9C245",
"!. c #F3D050",
"~. c #E2C96B",
"^. c #9D8A84",
"/. c #988586",
"(. c #9F8E94",
"). c #A38B84",
"_. c #A98C86",
"`. c #B58C84",
"'. c #AA9388",
"]. c #B3948C",
"[. c #B59989",
"{. c #AB9895",
"}. c #BC9C93",
"|. c #B49B98",
" X c #B8A39A",
".X c #ACA092",
"XX c #AB9AA0",
"oX c #BBA5A3",
"OX c #BEAAA2",
"+X c #B8ABAB",
"@X c #BEB6B6",
"#X c #CB8D84",
"$X c #D99987",
"%X c #C59B93",
"&X c #C69685",
"*X c #C2A59B",
"=X c #C7A697",
"-X c #DAA796",
";X c #CAAC88",
":X c #E3A68E",
">X c #E5B398",
",X c #E8AC94",
"<X c #C3ADA4",
"1X c #D5AAA5",
"2X c #C5B0A5",
"3X c #C9B5AB",
"4X c #D6B7A9",
"5X c #C8BBB9",
"6X c #D6BBB4",
"7X c #C9AFB0",
"8X c #EBB4AB",
"9X c #E5B9B5",
"0X c #EBB5B0",
"qX c #CEC1B8",
"wX c #D8C4BA",
"eX c #E7C6B7",
"rX c #EDCAB4",
"tX c #E2D89D",
"yX c #D5C6C4",
"uX c #DDD2D2",
"iX c #CDC7C7",
"pX c #E3C9C5",
"aX c #E6D2C9",
"sX c #E7DAD6",
"dX c #F5D9D7",
"fX c #F7CEC0",
"gX c #F8E4DC",
"hX c #FFF3D6",
"jX c #E8DFE4",
"kX c #EAE4E8",
"lX c #FDEDE4",
"zX c #FDEDEA",
"xX c #F5E8E6",
"cX c #FDF1E5",
"vX c #FEF4EC",
"bX c #FFFAED",
"nX c #F5F6EE",
"mX c #FEF4F2",
"MX c #F5FDF4",
"NX c #FEFCF5",
"BX c #FDF6FA",
"VX c #F6FDFC",
"CX c #FFFEFF",
"ZX c #FEFFFF",
"AX c white",
"SX c #FEFEFE",
"DX c #FEFEFE",
"FX c #FEFEFD",
"GX c #F7F7F9",
"HX c #FEEBF1",
/* pixels */
"VXDXFXNXNXFXZXDXDXZXFXFXZXVXZXZXNXFXFXFXZXZXFXZXZXFXFXBXFXNXZXZXZXZXFXZXZXVXZXZXZXZXZXZXZXZXZXZXZXZX",
"DXDXNXFXFXZXDXDXVXFXNXnXZXZXZXFXFXFXNXZXZXVXZXZXNXFXoX6.4.{.mXFXZXZXZXZXZXZXZXZXZXZXZXZXZXZXZXZXZXZX",
"VXDXZXFXZXZXZXDXZXnXNXNXFXZXZXDXVXMXFXVXZXDXVXVXFXaX3.e o.#.5.lXFXFXZXZXFXZXZXZXZXZXZXZXZXZXZXZXZXZX",
"DXZXDXZXZXZXZXZXZXMXNXNXFXFXZXNXnXNXFXZXVXDXDXZXFX'.@.s 8.#XK._.mXZXZXZXZXZXZXZXZXZXZXZXZXZXZXZXZXZX",
"DXDXVXDXFXFXFXGXVXVXFXZXZXBXzX).&.7.dXFXFXZXNXFXvX2.O.g #X$X$XK.yXZXZXZXZXZXZXZXZXZXZXZXZXZXZXZXZXZX",
"ZXDXVXFXNXvXBXFXNXVXVXDXBXHXS f > C 3.pXBXFXBXNXbXA O.s T.,X$XJ. XZXZXZXZXZXZXZXZXZXZXZXZXZXZXZXZXZX",
"ZXGXFXNXsX2X].<XvXFXDXZXFX{.=.+.o.6 #.&.dXBXvXlX*Xb O.n T.:X$XJ.7XZXZXZXZXZXZXZXZXZXZXZXZXZXZXZXZXZX",
"ZXZXNXOX^.}._.[.D.sXZXZXmXq.9.$XT.s O.Z @.6X_.7.S v n ] T.:XT.0.gXZXGXZXZXZXVXZXZXZXZXZXZXZXZXZXZXZX",
"FXmX1XG.{.6XH.%.F.5.NXFXpX`.#X,X$X' h o.f v c S b %.' ] 9.K.8.q.FXZXZXFXZXZXZXZXZXZXZXZXZXZXZXZXZXZX",
"NXNXG.3.NXNX-.L.' %.<XNX4X0.$X,X:X,.h ] g t C B 3.G.J.=.o.Z 2.lXFXGXZXZXZXZXZXZXZXZXZXZXZXZXZXZXZXZX",
"FXgX0.=.NXcXH.*.8.Z 1.zXeXK.#X$X$XR.+.] g d C D 3.`.J.G.].2XlXNXFXGXZXZXVXZXZXZXZXZXZXZXZXZXZXZXZXZX",
"FXsXG.O.gXbXH.-.rXd V mXcXH.K.T.$XR.+.s 6 d f *.8.G.G.@.7.6XsXnXZXZXFXZXZXZXZXZXZXZXZXZXZXZXZXZXZXZX",
"ZXFX'.5.=.}.7. XvXb V yXNXwXG.8.8.O.f t u 4 > C =.*.0.C y {.oXiXnXZXFXZXZXZXZXZXZXZXZXZXZXZXZXZXZXZX",
"ZXnXaX[.[.7.^.NXvX1.S wXFXNXdXq.S &.H e y X D 4 n O.#.0.H.'.OXqXsXZXFXZXZXZXZXZXZXZXZXZXZXZXZXZXZXZX",
"FXFXFXgX<XwXZXZXFX7.%.3XFXZXZXFXNXNXoXV w -   p t v 8.J.8.@.].OXiXkXZXZXZXZXZXZXZXZXZXZXZXZXZXZXZXZX",
"FXFXFXFXNXFXFXZXNXD.-.aXFXZXFXZXFXsX6.i i i i u f v $.w.w.@.).3X5XiXZXFXVXZXZXZXZXZXZXZXZXZXZXZXZXZX",
"ZXZXFXFXFXZXVXFXNXS.6.zXFXFXZXFXZX@XP z z z y p f d o.o.$.0.}.*X|.{.NXNXNXFXZXZXZXZXFXFXFXVXVXDXZXZX",
"ZXZXFXFXFXFXFXNXbXL '.BXmXFXFXZXBX+X6.A A p 5 5 + s g #X$.9X4X[.'.4. XqXgXNXZXZXZXZXFXFXFXFXDXZXZXZX",
"ZXDXFXFXFXFXNXNXgXK 5XFXNXFXDXVXxX'.6.S f 6 t b =.8.#.O.G.rXD.[.H.F F J 2. XBXFXZXZXZXZXZXZXZXZXZXZX",
"ZXDXVXFXFXFXNXNX^.6.xXFXNXFXDXDXuX1.H D v n *.H.=XrXrX`.}.[.D.[.[.u p 2.&.A |.FXFXFXZXZXZXZXFXFXZXZX",
"ZXVXVXFXFXBXNXsXG 7XFXFXNXMXMXZX5XG H D v x B H H.4X=XJ K D. XoXH.u 4 v H b A aXNXFXZXZXZXZXFXFXZXZX",
"DXZXFXNXZXFXmXD./.vXFXFXMXVXVXFX@XH 1.S n t p c b L.eXeX;XF.2X[.3.t 5 f D C y [.NXFXVXDXZXZXZXZXZXZX",
"DXZXFXNXFXNX7XL yXFXFXFXMXVXFXNX.XG G B C p t u F ;.L.A.A.W.;X&X%.6 1 d p c u -.NXZXVXVXDXZXZXZXZXZX",
"ZXZXNXFXNXvXL |.FXFXFXFXVXMXNX5XV y p G S v t d m A.W.~.~.} [ [ ` 8 $ d p c l A NXZXFXVXZXZXDXZXZXZX",
"ZXZXNXFXNX{.7.gXFXZXFXFXMXNX/.i 5 $ t @.D n 9 k } y.b.v.Q.g.~ Y ~ y.` 9 f C p &.NXFXFXFXFXMXMXFXZXZX",
"FXGXZXNXvXK {.NXZXZXBXFXZX5XG t e > w Z #.f ` >.I.U.b.x.m.x.n.n.M.Y.>.9 F S c 5.lXNXFXBXNXFXFXVXZXZX",
"FXZXZXFX3X4.qXFXZXZXFXZXFX{.B f p r w t f 6 m ,.R.R.A.b.v.x.h.m.c.Y.` o.@.b p 7 -.hXFXBXZXNXDXDXZXZX",
"BXZXZXNX'.H.lXNXZXZXZXFXBXoXC v p t u u b %.;.K.-X<.[ k.v.c.h.c.M.U.,.0.%.M # $ L.hXFXFXFXZXZXDXZXZX",
"FXFXZXNXD.'.NXFXFXZXZXFXZXyXz c d 7 l x F 4.5.,.>.{ ~ x.M.M.M.v.U.W.>X=.k j 1 k tXrXNXFXFXZXZXZXZXZX",
"ZXZXZXNX5.=XNXFXZXFXZXZXZXxX4.u d d x M J &.3.m U ) x.V.M.N.M.k.W.:XR.` W E b.Y.~.P.bXcXlX5XuXFXZXZX",
"DXZXZXvXG.=XNXNXZXDXZXZXDXFXwXu u f c c V b n 0 X.z.j.j.n.M.M.l.>.>.T k.M.V.B.!.t.x hX X).2X6X5XZXZX",
"VXZXNXNX`.%XbXFXDXZXFXZXZXFXcXu > > r p 6 6 2 U d.i.i.i.s.g.n.l./ T Q !.V.B.B.N.m $ eX X X6X].).FXZX",
"VXFXFXvXH.=XbXNXFXZXFXZXZXFXmXp + + + , : < Y X.f.u.f.d.^ u.f.f.! | u.j.m.C.V.N.j $ q.1X1X*X6X+XZXZX",
"ZXVXNXNX_.*XlXNXNXZXDXZXZXZXBXN e 6 M 0 T (  .....| ^ ~ r.^ | | p.i.i.s.V.C.B.y.# + 5.9X9X1X XHXZXZX",
"ZXZXZXvX{.).pXmXFXZXDXDXDXVXGXS.e 6 ` [ ) _ u.|  .( Y U R _  .| u.u.i.a.Z.B.!.3 X X @.6X6X4X5XFXZXZX",
"ZXZXBXFXyX4.oXNXBXZXZXVXVXVXDX5Xw 6 1 8 W E Q ~ / { { R 8 / ! | | | | a.B.V.t.# # O D 4XeX4XvXBXZXZX",
"ZXFXFXFXmX4.).lXFXZXZXZXDXVXVXMXN w > $ X 1 8 k :.e.:.:.0 Y ! | ! ! ^ a.V.Q.3 # X $ &.6XfX XFXZXZXZX",
"ZXFXBXFXNX^.).|.mXFXNXFXFXNXMXNX{.r * * $ # O 9 ' $X<.E.R T Y Q ( Q ^ g.Q.E # o @ * &.eXeX3XNXZXZXZX",
"ZXZXFXNXNXlX1.}.*XgXNXNXlXbXbXbXdXf q q * X X %.' $X<.:X9 8 9 ` T / Q l.U.1 O & o o B wX2XgXFXFXZXZX",
"VXZXFXNXNXbXwX4.}.}.)._.G.5.S V p + * * & & O =.K.T.R.,X' 1 5 1 2 8 U [ 3 # @ .   % i wXOXcXFXFXZXZX",
"ZXFXFXFXMXNXbXaX7.].*X].5.@.c 4 $ $ X @ * &   B -X9.$X>X;.7 4 4 1 : : # # @ o o . % V pX<XxXBXZXZXZX",
"ZXZXZXFXMXMXNXvXNXpX X).5.H B V z G  X/.; & & @ %X-X-X>XK.4 4 y e 5 1 = & o ; L /./.1.2X|.yXZXZXZXZX",
"ZXFXZXZXVXVXVXFXFXNXNXFXFXFXBXNXFXFXFXFX@Xa & o S 1X8X8X8Xf r w - ; w - z {.kXFXFXFXlX)./.mXFXGXZXZX",
"ZXZXZXZXDXDXVXVXVXZXZXNXBXZXFXFXZXVXVXNXZXsXXXN w `.0XfX0XZ r N a I (.5XzXFXFXZXZXFXNXcXmXFXFXZXZXZX",
"ZXZXZXZXZXZXDXDXDXDXDXZXZXZXZXZXGXZXZXVXZXFXFXxXsX6X[.rXrXq.aXkXkXkXFXZXvXFXZXZXZXFXNXNXFXFXZXZXZXZX",
"ZXZXZXZXZXZXZXZXVXDXZXZXVXVXDXZXZXZXVXZXFXmXFXFXVXNXwX`.9X`.OXFXZXZXZXZXFXZXGXDXVXFXNXFXBXZXZXDXZXZX",
"VXVXDXZXFXFXFXFXZXZXZXFXDXDXZXFXFXVXVXVXNXFXFXZXDXZXFX].%X%X7.NXZXVXFXFXFXZXZXDXVXMXGXZXZXZXVXZXZXZX",
"FXMXMXZXZXFXZXZXZXFXZXZXDXDXZXZXZXZXMXMXFXNXZXDXDXVXFXmX7.H  XNXZXFXFXFXZXZXDXZXMXFXZXFXZXZXVXZXZXZX",
"ZXZXZXZXZXZXZXZXZXZXZXZXZXZXZXZXZXZXZXZXZXZXZXZXDXZXZXZXmXzXmXFXZXZXZXZXZXZXZXZXZXZXZXZXZXZXZXZXZXZX",
"ZXZXZXZXZXZXZXZXZXZXZXZXZXZXZXZXZXZXZXZXZXZXZXZXZXZXZXZXZXVXZXZXZXZXZXZXZXZXZXZXZXZXZXZXZXZXZXZXZXZX"
};
