/* XPM */
static char *c890ccd691e44d68bd6e717db90f643054LZ700TWVjiOt8T[] = {
/* columns rows colors chars-per-pixel */
"50 50 174 2 ",
"   c None",
".  c #8A2500",
"X  c #8F2B00",
"o  c #942400",
"O  c #952F00",
"+  c #803200",
"@  c #8B3300",
"#  c #913400",
"$  c #E61700",
"%  c #E71B00",
"&  c #DE3F00",
"*  c #E72100",
"=  c #E82500",
"-  c #EA2C00",
";  c #EA3400",
":  c #EB3C00",
">  c #F23A00",
",  c #944700",
"<  c #9D4500",
"1  c #924B00",
"2  c #9B4800",
"3  c #855000",
"4  c #8B5600",
"5  c #A34400",
"6  c #AB4B00",
"7  c #B14700",
"8  c #AD5F00",
"9  c #B15000",
"0  c #BB5100",
"q  c #876100",
"w  c #8B6700",
"e  c #8A6A00",
"r  c #946E00",
"t  c #8F7200",
"y  c #907500",
"u  c #AD6500",
"i  c #A36A00",
"p  c #AE6900",
"a  c #AF7100",
"s  c #A87D00",
"d  c #CE4600",
"f  c #D14100",
"g  c #D65700",
"h  c #EC4400",
"j  c #ED4C00",
"k  c #F04600",
"l  c #F94700",
"z  c #F34A00",
"x  c #FE4D00",
"c  c #E75300",
"v  c #EE5400",
"b  c #EF5B00",
"n  c #F35400",
"m  c #FF5300",
"M  c #F15C00",
"N  c #FF5B00",
"B  c #DE6600",
"V  c #D87400",
"C  c #ED6400",
"Z  c #EB6B00",
"A  c #F16300",
"S  c #FF6300",
"D  c #F16C00",
"F  c #FF6B00",
"G  c #E47800",
"H  c #F27300",
"J  c #FE7400",
"K  c #F37C00",
"L  c #FF7C00",
"P  c #9E8900",
"I  c #A08400",
"U  c #AD8900",
"Y  c #B08200",
"T  c #BB8400",
"R  c #AD9600",
"E  c #B09500",
"W  c #B99200",
"Q  c #BF9D00",
"!  c #C18500",
"~  c #D48C00",
"^  c #C39500",
"/  c #C19B00",
"(  c #DE9300",
")  c #E68200",
"_  c #E58B00",
"`  c #EB8A00",
"'  c #F58400",
"]  c #FE8400",
"[  c #F68B00",
"{  c #FF8A00",
"}  c #E39400",
"|  c #EE9000",
" . c #E89A00",
".. c #F79300",
"X. c #FE9400",
"o. c #F79900",
"O. c #FC9C00",
"+. c #CBA400",
"@. c #D4B400",
"#. c #DDB200",
"$. c #DFB900",
"%. c #E8A500",
"&. c #EBAD00",
"*. c #F0A200",
"=. c #FBA300",
"-. c #F7AB00",
";. c #FCAB00",
":. c #E0B700",
">. c #EEB600",
",. c #E5B800",
"<. c #EABE00",
"1. c #F7B300",
"2. c #FBB200",
"3. c #FAB300",
"4. c #FAB100",
"5. c #FFB000",
"6. c #FFB200",
"7. c #FEB200",
"8. c #FDB200",
"9. c #FBB500",
"0. c #FBB600",
"q. c #FFB700",
"w. c #FCB600",
"e. c #FFB300",
"r. c #F5BE00",
"t. c #F6BD00",
"y. c #FCB900",
"u. c #FCB800",
"i. c #FCBA00",
"p. c #FCBD00",
"a. c #FFBC00",
"s. c #FFBD00",
"d. c #FDBF00",
"f. c #FFBC00",
"g. c #E6C700",
"h. c #ECC400",
"j. c #EECD00",
"k. c #F5C400",
"l. c #FDC100",
"z. c #FFC100",
"x. c #FFC000",
"c. c #FDC200",
"v. c #FDC400",
"b. c #FDC500",
"n. c #FFC400",
"m. c #FFC500",
"M. c #FEC500",
"N. c #FDC700",
"B. c #FFC600",
"V. c #FEC300",
"C. c #F5CB00",
"Z. c #FEC800",
"A. c #FFC900",
"S. c #FEC900",
"D. c #FECB00",
"F. c #FDCA00",
"G. c #FFCC00",
"H. c #FFCD00",
"J. c #FFCE00",
"K. c #FECF00",
"L. c #FFCB00",
"P. c #FFD100",
"I. c #FFD000",
"U. c #FFD300",
"Y. c #FFD500",
"T. c #FFD400",
"R. c #FFD600",
"E. c #FED600",
"W. c #FFD300",
"Q. c #FFD800",
"!. c #FFD900",
"~. c #FFDB00",
"^. c #FFDC00",
"/. c #FFD800",
/* pixels */
"                                                                                                    ",
"                                          K.<.                                                      ",
"                                          ,.Z.Z.#.                                                  ",
"                                          U Z.Z.Z.Z.W                                               ",
"                                          e b.b.b.b.b.r.                                            ",
"                                            l.l.l.l.l.l.l.^                                         ",
"                                          w p.p.p.p.p.p.p.p.&.                                      ",
"                                          Y i.i.i.i.i.i.i.i.i.1.                                    ",
"                                          &.9.9.9.9.9.9.9.9.9.9.4.                                  ",
"                                          4.4.4.4.4.4.4.4.4.4.4.4.4.                                ",
"                                        ! ;.;.;.;.;.;.;.;.;.;.;.;.;.-.                              ",
"                                        -.-.-.-.-.-.-.-.-.-.-.-.-.-.-.*.                            ",
"                                      ( =.=.=.=.=.=.=.4.=.=.=.=.=.=.=.=.(                           ",
"                  q T               i =.=.=.=.=.=.=.=.c.Z.=.=.=.=.=.=.=.=.a                         ",
"                    5.;.            o.o.o.o.o.o.o.o.o.=.Q.E.;.o.o.o.o.o.o.o.                        ",
"                    5.;.o.        o.o.o.o.o.o.o.o.o.o.o.I.Q.Q.4.o.o.o.o.o.o._                       ",
"                    5.;.=.      | o.o.o.o.o.o.o.o.o.o.o.b.E.E.E.-...o...o.o...3                     ",
"                    5.;.=.4   ` ....................[ [ l.I.E.E.I.o.....[ ..[ `                     ",
"                  %.5.;.=.p ) [ [ [ [ [ [ [ [ ' ' ' ' ' Z.I.I.I.I.9.' ' ' ' ' '                     ",
"                s q.5.;.O.' ' ' ' ' ' ' ' ' ' ' ' ' ' o.K.K.K.K.K.Z.' ' ' ' ' ' 8                   ",
"                p.q.5.=.' ' ' ' ' ' ' ' ' ' ' ' ' ' ' i.K.K.K.K.K.K.[ ' ' ' ' ' G                   ",
"              b.p.q.;.' K K K K K K K K K K K K K K =.Z.Z.Z.Z.Z.Z.Z.[ K K K K K K     1             ",
"            b.b.p.5.' K K K K K K K K K K K K K K ..b.b.b.b.b.b.b.b.' H K K K K K     K ,           ",
"          k.Z.b.p.' H H H H H H H H H H H H H H ..l.l.l.l.l.l.l.l.5.H H H H H H H     H H           ",
"        #.K.Z.b...H H H H H H H H H H H H D H O.p.p.p.p.p.p.p.p.p.' D D D D D H B   9 D D Z         ",
"      I I.K.Z.5.D D D D D D D D D D D D D D =.q.q.q.q.q.q.q.q.i.O.D D D D D D D <   D D D D <       ",
"      E.I.K.Z.K D D D D D D D D D A A A D ;.5.5.5.5.5.5.5.5.5.O.A A A A A A A A 5 C A A A A C       ",
"    @.E.I.K.;.A A A A A A A A A A A A D ;.;.;.;.;.;.;.;.;.;...A A A A A A A A A A A A A A A A       ",
"    Q.E.I.K.' M M M M M M b M M b b D =.;.;.;.;.;.;.;.;.;.X.M b b b b b b b b b b b b b b b b +     ",
"  R Q.E.I.K.A b b b b b b M M M b A O.;.;.=.;.;.;.;.;.;.X.M b b b b b b v v v v v v v v v v v #     ",
"  j.Q.E.I.p.v v v v v v v v v v M X.O.O.O.O.O.O.O.O.O.X.b v v v v v v v v v v v v v v v v v v @     ",
"  ^.Q.E.I.q.v v v v v v v v v v { O.O.O.O.O.O.O.O.O.X.M j j j j j j j j j j j j j j j j j j j       ",
"  ^.Q.E.I.q.j j j j j h h h h H X.X.X.X.X.X.X.X.X.X.A h h h M A h h h h h h h h h h h h h h h       ",
"  ^.Q.E.I.b.h h h h h h h h n X.X.X.X.X.X.X.X.X.X.] h h h h h ] { A h h h h h h h h h h h h &     X ",
"  g.Q.E.I.K.v h h h h h h h J { { { { { { { { { { M h h h h h D { { J h : : : : h h h h : : .     x ",
"  P Q.E.I.K.K : : : : : : h { { { { { { { { { { { n : : : : : J { { { J : : : : : : : : : :     j z ",
"    Q.E.I.K.;.: : : : : : n ] ] ] ] ] ] ] ] ] ] ] F ; ; ; ; h ] ] ] ] ] A ; ; ; ; ; ; ; ; o   M N f ",
"    E E.I.K.Z.M ; ; ; ; ; M L L L L L L L L L L ] L F z h M L L ] ] L L L h ; ; ; ; ; ; ; A S N N O ",
"      $.I.K.Z.-.; - - - - n L L L L L L L L L L L L L L L L L L L L L L L S - - - - - - M F S N N   ",
"  P     :.K.Z.b.H - - - - z J J J J J J J J J J J J J J J J J J J J J J J J = = = = = k J F S N d   ",
"  R @.    / Z.b.p.j = = = ; J J J J J J J J J J J J J J J J J J J J J J J J = * * * ; L J F S N     ",
"    h.E.+.  t >.p.;.: % % % S F F F F F F F F F F F F F F F F F F F F F F F % % % - L L J F S @     ",
"      C.I.K.Z.r.p.q.;.; $ $ > F F F F F F F F F F F F F F F F F F F F F F N $ $ * L ] L L F 7       ",
"        h.K.Z.b.p.q.5.=.: $ $ m S S S S S S S S S S S S S S S S S S S S S > $ * ] X.] L L 6         ",
"          +.Z.b.p.q.5.;.=.n $ = N S N S N N N N S S S S S S S N S S S S N % = { O.X.] L             ",
"              t.p.q.5.;.=.O.J = - N N N N N N N N N N N N N N N N N N N - ; O.=.O.X.V               ",
"                r 4.5.;.=.O.X.{ z - N N N N N N N N N N N N N N N N N > A ;.;.=.`                   ",
"                      ~ =.O.X.X.{ J z l m m N m N N N N m m m m N m n o.i.5. .                      ",
"                            u ) { ] L F m x x m m m m m m m x m N ..Z.c.T                           ",
"                                      2 0 g c n x x x x x m J } Q y                                 "
};
